<svg width="32" height="18" viewBox="0 0 32 18" fill="none" xmlns="http://www.w3.org/2000/svg">
<path d="M23.4846 13.3313C22.7663 13.3313 22.182 12.7498 22.182 12.0355C22.182 11.3212 22.7663 10.7401 23.4846 10.7401C24.203 10.7401 24.7873 11.321 24.7873 12.0355C24.7873 12.7499 24.203 13.3313 23.4846 13.3313ZM9.08561 13.3313C8.3673 13.3313 7.78299 12.7498 7.78299 12.0355C7.78299 11.3212 8.36718 10.7401 9.08561 10.7401C9.80393 10.7401 10.3882 11.321 10.3882 12.0355C10.3882 12.7499 9.80405 13.3313 9.08561 13.3313ZM23.9518 5.52771L26.5554 1.04353C26.6271 0.919778 26.6464 0.772807 26.6093 0.634866C26.5721 0.496925 26.4814 0.37928 26.3571 0.307746C26.2327 0.236509 26.0849 0.21726 25.9462 0.254221C25.8075 0.291182 25.6892 0.381335 25.6172 0.504911L22.9811 5.04577C20.9651 4.13096 18.701 3.62127 16.2851 3.62127C13.8692 3.62127 11.6051 4.13096 9.58921 5.04577L6.95296 0.504911C6.88101 0.381335 6.7627 0.291182 6.624 0.254221C6.4853 0.21726 6.33752 0.236509 6.21307 0.307746C6.08871 0.379213 5.99797 0.496859 5.96079 0.634828C5.92361 0.772797 5.94304 0.9198 6.0148 1.04353L8.61838 5.52771C4.14766 7.94575 1.08996 12.4466 0.642639 17.7642H31.9276C31.4799 12.4468 28.4222 7.94575 23.9518 5.5276" fill="#3DDB85"/>
</svg>
