<svg width="23" height="32" viewBox="0 0 23 32" fill="none" xmlns="http://www.w3.org/2000/svg">
<path d="M15.1351 11.6817L12.0063 14.5786L9.10205 8.75065L10.6024 5.39966C10.9816 4.73123 11.6017 4.7224 11.981 5.39966L15.1351 11.6817Z" fill="#FFA000"/>
<path d="M12.0076 14.5773L0.304321 25.4021L9.10338 8.75061L12.0076 14.5773Z" fill="#F57F17"/>
<path d="M18.5657 7.25104C19.1263 6.72008 19.7033 6.89917 19.8492 7.65336L22.8917 25.2558L12.8003 31.2806C12.4464 31.4773 11.5079 31.5543 11.5079 31.5543C11.5079 31.5543 10.6544 31.4508 10.3272 31.2717L0.304321 25.4021L18.5657 7.25104Z" fill="#FFCA28"/>
<path d="M9.10336 8.75065L0.304321 25.4022L4.22572 1.06368C4.37283 0.309486 4.80276 0.232553 5.19085 0.900985L9.10336 8.75065Z" fill="#FFA000"/>
</svg>
