<svg width="40" height="32" viewBox="0 0 40 32" fill="none" xmlns="http://www.w3.org/2000/svg">
<g clip-path="url(#clip0_2_4163)">
<path d="M25.2008 9.01179H26.3805L29.7413 5.65097L29.9066 4.22497C23.6532 -1.29431 14.1071 -0.699601 8.58786 5.55374C7.05329 7.29087 5.94003 9.35695 5.33398 11.5932C5.70831 11.4392 6.12315 11.4149 6.51368 11.5219L13.2337 10.4135C13.2337 10.4135 13.5756 9.84795 13.7523 9.8836C16.742 6.60055 21.7735 6.21813 25.2251 9.01179H25.2008Z" fill="#EA4335"/>
<path d="M34.5282 11.5932C33.7552 8.7493 32.1704 6.19222 29.965 4.23633L25.2495 8.95185C27.241 10.5788 28.3753 13.0305 28.3267 15.6022V16.44C30.6456 16.44 32.5237 18.3197 32.5237 20.637C32.5237 22.9558 30.644 24.8339 28.3267 24.8339H19.9312L19.0934 25.6831V30.7178L19.9312 31.5556H28.3267C33.1395 31.5929 37.4093 28.4735 38.8386 23.8779C40.2646 19.2806 38.5145 14.2896 34.5282 11.5932Z" fill="#4285F4"/>
<path d="M11.5241 31.5086H19.9197V24.7886H11.5241C10.9262 24.7886 10.3347 24.6606 9.79025 24.411L8.61056 24.7756L5.22705 28.1364L4.93213 29.3161C6.82968 30.7486 9.14531 31.5183 11.5241 31.5086Z" fill="#34A853"/>
<path d="M11.5242 9.70697C6.86051 9.73452 2.72997 12.721 1.24239 17.14C-0.245191 21.559 1.23753 26.4365 4.93378 29.2788L9.80325 24.4093C7.69018 23.4549 6.75194 20.9691 7.70638 18.856C8.66083 16.743 11.1466 15.8047 13.2597 16.7592C14.1898 17.1805 14.9352 17.9259 15.3566 18.856L20.226 13.9866C18.1535 11.2788 14.9336 9.69563 11.5242 9.70697Z" fill="#FBBC05"/>
</g>
<defs>
<clipPath id="clip0_2_4163">
<rect width="38.6592" height="31.1111" fill="white" transform="translate(0.67041 0.444458)"/>
</clipPath>
</defs>
</svg>
