<svg width="24" height="32" viewBox="0 0 24 32" fill="none" xmlns="http://www.w3.org/2000/svg">
<path d="M7.91719 24.5043C7.91719 24.5043 6.72834 25.1957 8.76329 25.4296C11.2286 25.7108 12.4885 25.6706 15.2054 25.1563C15.2054 25.1563 15.9197 25.6042 16.9171 25.9921C10.8269 28.6023 3.13352 25.8409 7.91719 24.5043ZM7.17297 21.0981C7.17297 21.0981 5.83954 22.0852 7.87602 22.2958C10.5095 22.5675 12.5893 22.5897 16.188 21.8968C16.188 21.8968 16.6858 22.4014 17.4685 22.6774C10.1049 24.8306 1.90323 22.8472 7.17297 21.0981Z" fill="#5382A1"/>
<path d="M13.4469 15.3203C14.9476 17.048 13.0526 18.6027 13.0526 18.6027C13.0526 18.6027 16.863 16.6357 15.113 14.1724C13.4787 11.8754 12.2252 10.734 19.0105 6.79883C19.0105 6.79883 8.35992 9.45883 13.4469 15.3202" fill="#E76F00"/>
<path d="M21.5018 27.0239C21.5018 27.0239 22.3816 27.7487 20.5328 28.3096C17.0175 29.3746 5.90134 29.6961 2.8133 28.352C1.70327 27.8692 3.78496 27.199 4.43974 27.0583C5.12262 26.9102 5.51292 26.9379 5.51292 26.9379C4.27841 26.0682 -2.46643 28.6455 2.08691 29.3835C14.5044 31.3973 24.7227 28.4768 21.5018 27.0239ZM8.48882 17.5691C8.48882 17.5691 2.83455 18.9122 6.48657 19.3998C8.02852 19.6062 11.1024 19.5596 13.9657 19.3196C16.3058 19.1223 18.6554 18.7026 18.6554 18.7026C18.6554 18.7026 17.8303 19.0559 17.2334 19.4635C11.4915 20.9737 0.399123 20.2712 3.59247 18.7264C6.29309 17.421 8.48891 17.5691 8.48891 17.5691H8.48882ZM18.6321 23.2388C24.4691 20.2057 21.7703 17.291 19.8866 17.6837C19.4249 17.7797 19.2191 17.863 19.2191 17.863C19.2191 17.863 19.3905 17.5945 19.7178 17.4783C23.4443 16.1681 26.3103 21.3424 18.5148 23.3917C18.5148 23.3918 18.6052 23.3111 18.6321 23.2388Z" fill="#5382A1"/>
<path d="M15.113 0.444426C15.113 0.444426 18.3456 3.67821 12.047 8.65059C6.99628 12.6394 10.8953 14.9137 12.045 17.5122C9.09671 14.8522 6.93305 12.5105 8.38465 10.3312C10.5151 7.13188 16.4172 5.58083 15.113 0.444336" fill="#E76F00"/>
<path d="M9.06247 31.4577C14.6652 31.8164 23.2688 31.2587 23.4726 28.6077C23.4726 28.6077 23.0809 29.6127 18.8422 30.4108C14.0602 31.3107 8.16223 31.2057 4.66406 30.6289C4.66415 30.6289 5.38018 31.2216 9.06256 31.4577" fill="#5382A1"/>
</svg>
