<svg width="32" height="32" viewBox="0 0 32 32" fill="none" xmlns="http://www.w3.org/2000/svg">
<path d="M31.5556 0.444336H0.444443V31.5554H31.5556V0.444336Z" fill="#F7DF1E"/>
<path d="M21.3432 24.7499C21.9699 25.7731 22.7852 26.5252 24.2272 26.5252C25.4385 26.5252 26.2123 25.9198 26.2123 25.0832C26.2123 24.0808 25.4173 23.7257 24.0839 23.1425L23.3531 22.8289C21.2434 21.9302 19.842 20.8042 19.842 18.424C19.842 16.2314 21.5126 14.5623 24.1234 14.5623C25.9822 14.5623 27.3185 15.2092 28.2815 16.903L26.0049 18.3647C25.5037 17.466 24.963 17.1119 24.1234 17.1119C23.2672 17.1119 22.7244 17.6551 22.7244 18.3647C22.7244 19.2418 23.2676 19.5968 24.522 20.14L25.2528 20.4531C27.7368 21.5183 29.1392 22.6042 29.1392 25.0457C29.1392 27.6778 27.0716 29.1198 24.2948 29.1198C21.5797 29.1198 19.8257 27.826 18.9674 26.1302L21.3432 24.7499ZM11.0158 25.0032C11.4751 25.8181 11.8928 26.5069 12.8973 26.5069C13.8578 26.5069 14.4637 26.1311 14.4637 24.6699V14.7292H17.3872V24.7094C17.3872 27.7366 15.6123 29.1144 13.0217 29.1144C10.681 29.1144 9.32542 27.903 8.63604 26.444L11.0158 25.0032Z" fill="black"/>
</svg>
