<svg width="30" height="32" viewBox="0 0 30 32" fill="none" xmlns="http://www.w3.org/2000/svg">
<path d="M13.7262 0.77637C14.4976 0.334819 15.5024 0.332824 16.2732 0.77637C20.1507 2.96739 24.0295 5.15498 27.9064 7.34734C28.6356 7.75809 29.1234 8.56961 29.1159 9.40983V22.5919C29.1214 23.4669 28.5854 24.2978 27.8161 24.6992C23.9513 26.8782 20.0884 29.0598 16.2243 31.2387C15.4369 31.6889 14.412 31.6543 13.6492 31.1672C12.4906 30.4955 11.3299 29.8271 10.1711 29.1561C9.93432 29.0149 9.6674 28.9026 9.50019 28.673C9.64801 28.4738 9.91227 28.4489 10.127 28.362C10.6107 28.2082 11.0549 27.9613 11.4992 27.7217C11.6116 27.6448 11.7487 27.6743 11.8564 27.7431C12.8472 28.3112 13.8293 28.8958 14.8234 29.4585C15.0355 29.5809 15.2502 29.4184 15.4315 29.3173C19.2241 27.1738 23.0213 25.0384 26.8132 22.8943C26.9537 22.8267 27.0314 22.6775 27.02 22.5236C27.0226 18.1751 27.0206 13.8259 27.0213 9.47742C27.0374 9.3028 26.9363 9.14224 26.7784 9.07077C22.927 6.9018 19.0776 4.7295 15.2268 2.55997C15.1601 2.5141 15.0811 2.48949 15.0001 2.48938C14.9192 2.48926 14.8401 2.51363 14.7732 2.55931C10.9225 4.7295 7.07371 6.90379 3.22297 9.07266C3.06562 9.14424 2.96003 9.30213 2.97875 9.47742C2.97942 13.8259 2.97875 18.1751 2.97875 22.5243C2.97208 22.5994 2.98857 22.6747 3.02601 22.7402C3.06346 22.8056 3.12005 22.858 3.18817 22.8903C4.21576 23.473 5.24468 24.0516 6.27294 24.6323C6.85222 24.9441 7.56346 25.1294 8.20169 24.8905C8.7649 24.6885 9.1597 24.1138 9.14895 23.5158C9.15427 19.1927 9.14629 14.8689 9.15294 10.5465C9.13887 10.3545 9.32092 10.196 9.50751 10.214C10.0012 10.2107 10.4957 10.2074 10.9894 10.2154C11.1955 10.2107 11.3373 10.4174 11.3118 10.6107C11.3098 14.9612 11.3171 19.3118 11.3085 23.6622C11.3098 24.8217 10.8335 26.0833 9.76103 26.6506C8.43981 27.335 6.80679 27.1899 5.50152 26.5336C4.37155 25.9696 3.29321 25.304 2.1833 24.6998C1.412 24.3006 0.878699 23.4663 0.884129 22.592V9.40983C0.87604 8.55221 1.38319 7.72595 2.1351 7.32119C5.99925 5.14047 9.86274 2.95809 13.7262 0.77637Z" fill="#8CC84B"/>
<path d="M17.0973 9.90759C18.7826 9.79911 20.5868 9.84333 22.1034 10.6736C23.2775 11.3098 23.9285 12.6451 23.9492 13.9496C23.9164 14.1255 23.7325 14.2226 23.5645 14.2105C23.0755 14.2099 22.5865 14.2172 22.0975 14.2072C21.8901 14.2152 21.7695 14.0239 21.7435 13.8406C21.603 13.2164 21.2626 12.5982 20.6751 12.2972C19.7733 11.8457 18.7276 11.8684 17.7442 11.8778C17.0264 11.9159 16.2544 11.9781 15.6462 12.4002C15.1793 12.72 15.0374 13.3655 15.2041 13.8854C15.3612 14.2587 15.7921 14.3792 16.1447 14.4902C18.1757 15.0214 20.328 14.9685 22.3202 15.6676C23.145 15.9526 23.9519 16.5066 24.2342 17.3702C24.6035 18.5276 24.4416 19.9111 23.6182 20.8403C22.9503 21.605 21.9777 22.0212 21.0076 22.2472C19.7171 22.535 18.3778 22.5423 17.0672 22.4145C15.8349 22.274 14.5524 21.9502 13.6011 21.1106C12.7876 20.4042 12.3902 19.3036 12.4297 18.2413C12.4391 18.0619 12.6177 17.9368 12.7896 17.9516C13.282 17.9476 13.7744 17.9463 14.2668 17.9522C14.4635 17.9382 14.6093 18.1081 14.6194 18.2935C14.7102 18.8882 14.9337 19.5124 15.4523 19.8649C16.4531 20.5106 17.7088 20.4664 18.8547 20.4844C19.8041 20.4423 20.8698 20.4296 21.6445 19.8021C22.0533 19.4442 22.1744 18.8454 22.0639 18.3303C21.9442 17.8954 21.4893 17.6927 21.0986 17.5602C19.0936 16.926 16.9173 17.1561 14.9317 16.4389C14.1256 16.154 13.3461 15.6154 13.0364 14.7873C12.6043 13.6152 12.8023 12.1654 13.7121 11.2676C14.5992 10.3745 15.8798 10.0306 17.0973 9.90748V9.90759Z" fill="#8CC84B"/>
</svg>
