<svg width="32" height="32" viewBox="0 0 32 32" fill="none" xmlns="http://www.w3.org/2000/svg">
<path d="M28.6654 6.4924C26.7744 4.05724 24.1996 2.23444 21.2667 1.25456C18.3339 0.274669 15.1747 0.181704 12.1887 0.987418C9.20273 1.79313 6.52408 3.46133 4.49154 5.78104C2.459 8.10075 1.16387 10.9678 0.769953 14.0195C0.376031 17.0712 0.901011 20.1706 2.2785 22.9256C3.65598 25.6806 5.8241 27.9675 8.50864 29.497C11.1932 31.0266 14.2736 31.7301 17.3602 31.5186C20.4468 31.3071 23.4011 30.1901 25.8493 28.3089C32.683 23.057 33.9442 13.2906 28.6649 6.4924H28.6654Z" fill="#FF6C37"/>
<path d="M21.5608 10.3559L14.9651 16.967L13.1013 15.0615C19.5928 8.60596 20.2444 9.18928 21.5613 10.3559H21.5608Z" fill="white"/>
<path d="M14.9652 17.1478C14.9068 17.1464 14.851 17.1233 14.8087 17.0832L12.9317 15.2165C12.8894 15.173 12.8658 15.1149 12.8658 15.0544C12.8658 14.9939 12.8894 14.9358 12.9317 14.8923C19.3318 8.5277 20.2053 8.82568 21.7173 10.1868C21.7426 10.2069 21.7628 10.2327 21.7764 10.2619C21.79 10.2912 21.7965 10.3232 21.7955 10.3555C21.8053 10.4187 21.7808 10.4833 21.7305 10.5241L15.1348 17.0837C15.0885 17.1258 15.0279 17.1489 14.9652 17.1483V17.1478ZM13.4268 15.061L14.9652 16.5907L21.2221 10.3686C21.0061 10.0993 20.6978 9.91876 20.3563 9.86137C20.0147 9.80397 19.6639 9.87379 19.3709 10.0575C18.2369 10.563 16.4121 12.1054 13.4268 15.061Z" fill="#FF6C37"/>
<path d="M16.8554 18.7948L15.0565 16.9671L21.6522 10.4854C23.4252 12.2096 20.7919 15.0873 16.8554 18.7943V18.7948Z" fill="white"/>
<path d="M16.8555 19.0281C16.7978 19.0236 16.743 19.0009 16.699 18.9635L14.8611 17.1746C14.8335 17.1081 14.8335 17.0335 14.8611 16.967C14.8415 16.9125 14.8415 16.8529 14.8611 16.7983L21.4568 10.2393C21.5026 10.1965 21.5632 10.1726 21.6261 10.1726C21.6891 10.1726 21.7496 10.1965 21.7955 10.2393C22.0091 10.4348 22.1779 10.6738 22.2903 10.9399C22.4027 11.2061 22.4562 11.4932 22.4471 11.7817C22.4471 13.5317 20.4395 15.7352 17.0246 18.9503C16.979 18.9952 16.9189 19.0228 16.855 19.0281H16.8555ZM15.3954 16.967L16.8682 18.4312C19.4751 15.9812 21.9651 13.4535 21.9778 11.7424C21.992 11.3796 21.8714 11.0244 21.6391 10.7444L15.3954 16.967Z" fill="#FF6C37"/>
<path d="M13.1531 15.1003L14.4568 16.3968C14.4651 16.4041 14.4718 16.4131 14.4763 16.4231C14.4809 16.4332 14.4833 16.4441 14.4833 16.4551C14.4833 16.4662 14.4809 16.4771 14.4763 16.4871C14.4718 16.4972 14.4651 16.5062 14.4568 16.5135L11.7062 17.0968C11.6507 17.1087 11.5928 17.1022 11.5413 17.0784C11.4898 17.0546 11.4475 17.0146 11.4209 16.9647C11.3944 16.9148 11.3849 16.8576 11.3941 16.8018C11.4032 16.7461 11.4304 16.6948 11.4716 16.6559L13.0749 15.0746C13.0749 15.0746 13.1272 15.0746 13.1531 15.1003Z" fill="white"/>
<path d="M11.6412 17.3559C11.5543 17.3548 11.4691 17.3316 11.3938 17.2884C11.3185 17.2453 11.2555 17.1837 11.211 17.1094C11.1609 17.0154 11.1427 16.9078 11.1592 16.8027C11.1756 16.6975 11.2259 16.6005 11.3024 16.5261L12.8925 14.9317C12.9499 14.8807 13.0241 14.8525 13.101 14.8525C13.1779 14.8525 13.2522 14.8807 13.3095 14.9317L14.6132 16.2281C14.6904 16.3011 14.7207 16.4114 14.6914 16.5135C14.6621 16.6156 14.576 16.6967 14.47 16.721L11.7194 17.3044L11.6412 17.3559ZM13.1013 15.3857L11.6285 16.8504L14.0662 16.3317L13.1013 15.3857Z" fill="#FF6C37"/>
<path d="M25.0677 6.7131C24.1242 5.80797 22.6421 5.77005 21.6527 6.62414C20.6633 7.47823 20.4942 8.94433 21.2646 9.99918C22.035 11.054 23.4873 11.3496 24.6116 10.6797L22.8386 8.91662L25.0677 6.7131Z" fill="white"/>
<path d="M23.3079 11.2757C22.7659 11.2688 22.2379 11.1034 21.7897 10.8001C21.3415 10.4969 20.993 10.0692 20.7875 9.5704C20.5822 9.07194 20.5284 8.52455 20.6326 7.99597C20.7369 7.46738 20.9947 6.98079 21.3741 6.59639C21.896 6.08694 22.5981 5.80151 23.3294 5.80151C24.0607 5.80151 24.7629 6.08694 25.2847 6.59639C25.3346 6.6382 25.363 6.69993 25.363 6.76507C25.3628 6.79712 25.3558 6.82876 25.3423 6.85787C25.3288 6.88697 25.3092 6.91285 25.2847 6.93375L23.173 8.91707L24.7764 10.4857C24.8023 10.5104 24.8218 10.541 24.8332 10.5749C24.8445 10.6088 24.8473 10.645 24.8414 10.6802C24.8375 10.7142 24.8262 10.7469 24.8082 10.776C24.7902 10.8052 24.766 10.8301 24.7373 10.8489C24.3065 11.1166 23.8113 11.2643 23.3035 11.2766L23.3079 11.2757ZM23.3079 6.24591C22.3792 6.25077 21.5482 6.80639 21.1996 7.65562C20.8511 8.50485 21.0407 9.48241 21.6919 10.1348C22.0157 10.4587 22.4304 10.6778 22.8816 10.7634C23.3328 10.849 23.7995 10.7972 24.2206 10.6146L22.6822 9.08478C22.6578 9.06533 22.638 9.04066 22.6245 9.0126C22.6109 8.98454 22.6038 8.9538 22.6038 8.92266C22.6038 8.89152 22.6109 8.86078 22.6245 8.83272C22.638 8.80466 22.6578 8.77999 22.6822 8.76054L24.7157 6.72521C24.3115 6.41713 23.8172 6.24867 23.3079 6.24542V6.24591Z" fill="#FF6C37"/>
<path d="M25.1068 6.75195L22.8777 8.95547L24.6507 10.7186C24.8291 10.6167 24.9953 10.4949 25.1459 10.3555C25.6105 9.86703 25.8662 9.21817 25.8589 8.54584C25.8516 7.87351 25.5819 7.23029 25.1068 6.75195Z" fill="white"/>
<path d="M24.6111 10.9131C24.5818 10.9146 24.5526 10.9096 24.5255 10.8985C24.4984 10.8873 24.4742 10.8702 24.4547 10.8484L22.6817 9.08529C22.6573 9.06585 22.6375 9.04118 22.6239 9.01311C22.6104 8.98505 22.6033 8.95431 22.6033 8.92317C22.6033 8.89204 22.6104 8.8613 22.6239 8.83323C22.6375 8.80517 22.6573 8.7805 22.6817 8.76106L24.8975 6.59642C24.9189 6.56433 24.948 6.53801 24.9821 6.5198C25.0162 6.50159 25.0544 6.49207 25.0931 6.49207C25.1318 6.49207 25.1699 6.50159 25.204 6.5198C25.2381 6.53801 25.2672 6.56433 25.2886 6.59642C25.5487 6.84988 25.7554 7.15241 25.8965 7.48629C26.0376 7.82017 26.1102 8.17869 26.1102 8.54085C26.1102 8.90301 26.0376 9.26153 25.8965 9.59541C25.7554 9.92929 25.5487 10.2318 25.2886 10.4853C25.1352 10.6471 24.9596 10.7867 24.767 10.8999C24.7185 10.9242 24.6625 10.9289 24.6106 10.9131H24.6111ZM23.1774 8.9171L24.6502 10.3817C24.7515 10.3111 24.8474 10.2331 24.9371 10.1484C25.3701 9.71902 25.614 9.13628 25.6151 8.52821C25.6161 7.98403 25.4167 7.45834 25.0545 7.05044L23.1774 8.9171Z" fill="#FF6C37"/>
<path d="M21.8346 10.6282C21.658 10.4634 21.4249 10.3716 21.1827 10.3716C20.9405 10.3716 20.7075 10.4634 20.5309 10.6282L14.6264 16.4868L15.6041 17.4722L21.8478 12.0277C21.943 11.937 22.0185 11.8278 22.0697 11.7069C22.1209 11.5861 22.1467 11.4561 22.1455 11.3249C22.1442 11.1938 22.116 11.0642 22.0625 10.9444C22.0091 10.8245 21.9315 10.7167 21.8346 10.6277V10.6282Z" fill="white"/>
<path d="M15.5518 17.7059C15.4934 17.7044 15.4376 17.6814 15.3953 17.6412L14.4045 16.6559C14.3622 16.6124 14.3386 16.5543 14.3386 16.4938C14.3386 16.4333 14.3622 16.3752 14.4045 16.3316L20.3095 10.4852C20.4796 10.3163 20.6968 10.2021 20.9329 10.1574C21.1691 10.1127 21.4133 10.1396 21.6339 10.2346C21.8544 10.3296 22.0413 10.4883 22.1701 10.6901C22.2989 10.892 22.3637 11.1276 22.3562 11.3666C22.3494 11.5287 22.3102 11.6879 22.2408 11.8348C22.1713 11.9817 22.0731 12.1134 21.9519 12.2221L15.7082 17.6665C15.6628 17.6985 15.607 17.7123 15.5518 17.7054V17.7059ZM14.8611 16.4867L15.5127 17.1478L21.6391 11.8459C21.7906 11.7146 21.881 11.527 21.8869 11.3272C21.8928 11.1274 21.8136 10.932 21.6655 10.7959C21.5287 10.6604 21.3435 10.5844 21.1505 10.5844C20.9575 10.5844 20.7723 10.6604 20.6355 10.7959L14.8611 16.4867Z" fill="#FF6C37"/>
<path d="M10.051 23.163C10.0344 23.1855 10.0254 23.2128 10.0254 23.2407C10.0254 23.2687 10.0344 23.296 10.051 23.3185L10.3116 24.4463C10.322 24.5127 10.3121 24.5806 10.2832 24.6413C10.2542 24.702 10.2076 24.7526 10.1493 24.7866C10.0912 24.8204 10.0239 24.8349 9.95692 24.8282C9.88998 24.8215 9.82692 24.7938 9.77681 24.7491L7.99115 23.038L13.5574 17.459H15.4867L16.7904 18.7554C14.7568 20.5236 12.4893 22.0066 10.051 23.163Z" fill="white"/>
<path d="M9.93373 25.0685C9.7861 25.0656 9.64044 25.0053 9.54267 24.8998L7.83521 23.2018C7.81076 23.1824 7.79102 23.1577 7.77745 23.1296C7.76388 23.1016 7.75684 23.0708 7.75684 23.0397C7.75684 23.0086 7.76388 22.9778 7.77745 22.9498C7.79102 22.9217 7.81076 22.897 7.83521 22.8776L13.4401 17.2908C13.4714 17.2576 13.5125 17.235 13.5574 17.2261H15.4995C15.5501 17.2083 15.6053 17.2083 15.6559 17.2261L16.9596 18.5226C16.9844 18.5453 17.0032 18.5737 17.0146 18.6052C17.0259 18.6368 17.0293 18.6707 17.0246 18.7039C17.0255 18.7361 17.0189 18.7681 17.0054 18.7973C16.9918 18.8266 16.9716 18.8523 16.9464 18.8726L16.8423 18.9635C14.8004 20.6562 12.554 22.0889 10.1552 23.2281L10.403 24.2781C10.4222 24.3591 10.4229 24.4433 10.4051 24.5246C10.3874 24.6059 10.3516 24.6823 10.3004 24.7481C10.2492 24.8139 10.1839 24.8675 10.1092 24.905C10.0345 24.9426 9.95237 24.963 9.86872 24.9649L9.93373 25.0685ZM8.34359 23.0331L9.88143 24.5756C9.89575 24.5883 9.91428 24.5953 9.93349 24.5953C9.95269 24.5953 9.97122 24.5883 9.98554 24.5756C9.99513 24.5623 10.0003 24.5464 10.0003 24.5301C10.0003 24.5138 9.99513 24.4979 9.98554 24.4847L9.725 23.3569C9.70447 23.276 9.71272 23.1904 9.74836 23.1149C9.784 23.0393 9.84483 22.9783 9.92053 22.9422C12.2549 21.8182 14.4434 20.4166 16.438 18.768L15.3689 17.7049H13.6224L8.34359 23.0331Z" fill="#FF6C37"/>
<path d="M6.64883 24.3685L7.95251 23.072L9.9601 25.0685L6.76663 24.8482C6.7118 24.844 6.65973 24.8226 6.61785 24.7871C6.57597 24.7517 6.54641 24.704 6.53341 24.6509C6.5204 24.5977 6.5246 24.5418 6.54542 24.4912C6.56623 24.4406 6.60259 24.3978 6.64932 24.3689L6.64883 24.3685Z" fill="white"/>
<path d="M9.99872 25.2629L6.81797 25.0427C6.62928 25.0252 6.46699 24.8969 6.40051 24.7253C6.33403 24.5537 6.37461 24.35 6.50512 24.2129L7.80881 22.9165C7.85255 22.8744 7.911 22.851 7.97183 22.851C8.03265 22.851 8.0911 22.8744 8.13485 22.9165L10.1292 24.8998C10.1568 24.9374 10.1717 24.9828 10.1717 25.0293C10.1717 25.0759 10.1568 25.1213 10.1292 25.1589C10.0991 25.2074 10.053 25.244 9.99872 25.2624V25.2629ZM6.81797 24.5372L9.42485 24.7058L7.99114 23.3705L6.81797 24.5372Z" fill="#FF6C37"/>
<path d="M15.669 17.6155L13.0358 18.0176L14.5609 16.514L15.669 17.6155Z" fill="white"/>
<path d="M13.0358 18.2631C12.992 18.2642 12.9489 18.2525 12.9117 18.2294C12.8746 18.2063 12.8452 18.1729 12.827 18.1333C12.7993 18.0957 12.7843 18.0503 12.7843 18.0037C12.7843 17.9571 12.7993 17.9117 12.827 17.8742L14.3389 16.3575C14.3848 16.3146 14.4454 16.2908 14.5083 16.2908C14.5712 16.2908 14.6318 16.3146 14.6777 16.3575L15.7863 17.459C15.8085 17.494 15.8202 17.5344 15.8202 17.5757C15.8202 17.617 15.8085 17.6574 15.7863 17.6924C15.7754 17.7349 15.7525 17.7735 15.7201 17.8034C15.6878 17.8333 15.6475 17.8533 15.604 17.861L12.9971 18.2631H13.0358ZM14.5609 16.8499L13.7137 17.6924L15.1738 17.4721L14.5609 16.8499Z" fill="#FF6C37"/>
<path d="M15.669 17.6146L13.8311 17.8479C13.7819 17.859 13.7304 17.8541 13.6843 17.8338C13.6381 17.8135 13.5998 17.779 13.575 17.7354C13.5501 17.6917 13.5401 17.6413 13.5463 17.5915C13.5525 17.5417 13.5748 17.4953 13.6096 17.459L14.5614 16.5126L15.669 17.6146Z" fill="white"/>
<path d="M13.7788 18.0948C13.6936 18.094 13.6101 18.0708 13.5369 18.0275C13.4637 17.9842 13.4033 17.9224 13.3618 17.8483C13.3121 17.7596 13.2928 17.6571 13.3069 17.5565C13.321 17.4559 13.3677 17.3626 13.44 17.2908L14.3918 16.3443C14.4376 16.3015 14.4982 16.2776 14.5612 16.2776C14.6241 16.2776 14.6847 16.3015 14.7305 16.3443L15.8387 17.4463C15.8716 17.4774 15.8948 17.5173 15.9055 17.5612C15.9161 17.6051 15.9136 17.6511 15.8985 17.6936C15.8833 17.7362 15.8561 17.7734 15.82 17.8009C15.784 17.8284 15.7407 17.8448 15.6955 17.8483L13.8707 18.0817L13.7788 18.0948ZM13.7788 17.615L15.1607 17.4463L14.5482 16.8372L13.7661 17.615H13.7788ZM25.1195 8.24284C25.0949 8.20194 25.0561 8.17142 25.0104 8.15709C24.9648 8.14275 24.9154 8.14559 24.8716 8.16507C24.8501 8.17594 24.8309 8.19101 24.8153 8.20938C24.7997 8.22775 24.7879 8.24904 24.7807 8.27201C24.7662 8.31835 24.7708 8.36853 24.7934 8.41152C24.8848 8.60256 24.8594 8.8286 24.7284 8.99485C24.7121 9.01087 24.6994 9.03007 24.691 9.05124C24.6826 9.07241 24.6787 9.09509 24.6795 9.11784C24.68 9.16343 24.6974 9.20723 24.7284 9.24082C24.7619 9.25396 24.7991 9.25396 24.8325 9.24082C24.8629 9.24841 24.8948 9.24758 24.9247 9.2384C24.9546 9.22923 24.9814 9.21208 25.0022 9.18881C25.1095 9.05812 25.1775 8.8999 25.1982 8.73243C25.219 8.56495 25.1917 8.39506 25.1195 8.24236V8.24284Z" fill="#FF6C37"/>
</svg>
