<svg width="32" height="32" viewBox="0 0 32 32" fill="none" xmlns="http://www.w3.org/2000/svg">
<path d="M15.9823 0.525391C8.04023 0.525391 8.53613 3.95041 8.53613 3.95041L8.54494 7.49883H16.1239V8.56416H5.53469C5.53469 8.56416 0.45256 7.99099 0.45256 15.96C0.45256 23.9292 4.88837 23.6465 4.88837 23.6465H7.53565V19.9485C7.53565 19.9485 7.39293 15.5374 11.9007 15.5374H19.4176C19.4176 15.5374 23.6409 15.6052 23.6409 11.4784V4.6549C23.6409 4.6549 24.2823 0.525391 15.9823 0.525391ZM11.8033 2.91163C11.9824 2.91147 12.1597 2.94644 12.3252 3.01452C12.4907 3.0826 12.6411 3.18247 12.7677 3.3084C12.8944 3.43434 12.9948 3.58387 13.0633 3.74845C13.1317 3.91302 13.1669 4.08941 13.1667 4.26751C13.1669 4.44561 13.1317 4.622 13.0633 4.78657C12.9948 4.95115 12.8944 5.10068 12.7677 5.22662C12.6411 5.35255 12.4907 5.45242 12.3252 5.5205C12.1597 5.58858 11.9824 5.62355 11.8033 5.62338C11.6242 5.62355 11.4468 5.58858 11.2813 5.5205C11.1158 5.45242 10.9654 5.35255 10.8388 5.22662C10.7122 5.10068 10.6117 4.95115 10.5433 4.78657C10.4748 4.622 10.4396 4.44561 10.4398 4.26751C10.4396 4.08941 10.4748 3.91302 10.5433 3.74845C10.6117 3.58387 10.7122 3.43434 10.8388 3.3084C10.9654 3.18247 11.1158 3.0826 11.2813 3.01452C11.4468 2.94644 11.6242 2.91147 11.8033 2.91163Z" fill="url(#paint0_linear_64_5405)"/>
<path d="M16.2079 31.4747C24.1499 31.4747 23.654 28.0497 23.654 28.0497L23.6452 24.5014H16.0661V23.4361H26.6554C26.6554 23.4361 31.7375 24.0092 31.7375 16.04C31.7375 8.07091 27.3017 8.35353 27.3017 8.35353H24.6544V12.0514C24.6544 12.0514 24.7971 16.4626 20.2894 16.4626H12.7724C12.7724 16.4626 8.54913 16.3948 8.54913 20.5217V27.3453C8.54913 27.3453 7.90783 31.4747 16.2077 31.4747H16.2079ZM20.3869 29.0887C20.2078 29.0889 20.0304 29.0539 19.8649 28.9858C19.6995 28.9178 19.5491 28.8179 19.4224 28.692C19.2958 28.566 19.1954 28.4165 19.1269 28.2519C19.0584 28.0873 19.0233 27.9109 19.0235 27.7328C19.0233 27.5547 19.0584 27.3783 19.1269 27.2137C19.1953 27.0492 19.2958 26.8996 19.4224 26.7737C19.549 26.6477 19.6994 26.5478 19.8649 26.4797C20.0304 26.4117 20.2078 26.3767 20.3869 26.3768C20.566 26.3767 20.7434 26.4116 20.9089 26.4797C21.0744 26.5478 21.2247 26.6477 21.3514 26.7736C21.478 26.8996 21.5784 27.0491 21.6469 27.2137C21.7154 27.3782 21.7505 27.5546 21.7504 27.7327C21.7505 27.9108 21.7154 28.0872 21.6469 28.2518C21.5784 28.4164 21.478 28.5659 21.3514 28.6918C21.2247 28.8178 21.0744 28.9176 20.9089 28.9857C20.7434 29.0538 20.566 29.0888 20.3869 29.0886V29.0887Z" fill="url(#paint1_linear_64_5405)"/>
<defs>
<linearGradient id="paint0_linear_64_5405" x1="3.45903" y1="3.30909" x2="18.8774" y2="18.6589" gradientUnits="userSpaceOnUse">
<stop stop-color="#387EB8"/>
<stop offset="1" stop-color="#366994"/>
</linearGradient>
<linearGradient id="paint1_linear_64_5405" x1="12.9753" y1="13.1107" x2="29.5371" y2="28.8545" gradientUnits="userSpaceOnUse">
<stop stop-color="#FFE052"/>
<stop offset="1" stop-color="#FFC331"/>
</linearGradient>
</defs>
</svg>
