<svg width="33" height="34" viewBox="0 0 33 34" fill="none" xmlns="http://www.w3.org/2000/svg">
<g clip-path="url(#clip0_67_754)">
<path d="M19.2876 33.1827C18.4219 34.2662 16.6666 33.6726 16.6457 32.2891L16.3407 12.0542H30.0311C32.5108 12.0542 33.8937 14.9006 32.3518 16.8307L19.2876 33.1827Z" fill="url(#paint0_linear_67_754)"/>
<path d="M19.2876 33.1827C18.4219 34.2662 16.6666 33.6726 16.6457 32.2891L16.3407 12.0542H30.0311C32.5108 12.0542 33.8937 14.9006 32.3518 16.8307L19.2876 33.1827Z" fill="url(#paint1_linear_67_754)" fill-opacity="0.2"/>
<path d="M13.7198 0.623077C14.5855 -0.46053 16.3409 0.133209 16.3617 1.5167L16.4954 21.7516H2.97638C0.496609 21.7516 -0.886402 18.9052 0.655591 16.9751L13.7198 0.623077Z" fill="#3ECF8E"/>
</g>
<defs>
<linearGradient id="paint0_linear_67_754" x1="16.3407" y1="16.5408" x2="28.4856" y2="21.666" gradientUnits="userSpaceOnUse">
<stop stop-color="#249361"/>
<stop offset="1" stop-color="#3ECF8E"/>
</linearGradient>
<linearGradient id="paint1_linear_67_754" x1="10.9463" y1="9.2004" x2="16.4419" y2="19.6099" gradientUnits="userSpaceOnUse">
<stop/>
<stop offset="1" stop-opacity="0"/>
</linearGradient>
<clipPath id="clip0_67_754">
<rect width="33" height="34" fill="white"/>
</clipPath>
</defs>
</svg>
