<svg width="32" height="32" viewBox="0 0 32 32" fill="none" xmlns="http://www.w3.org/2000/svg">
<path d="M7.28065 0.444458H24.6028C25.4457 0.444458 26.2642 0.578139 27.0582 0.857652C28.2065 1.27085 29.2448 2.00001 30.0267 2.94793C30.8207 3.89585 31.346 5.06251 31.5292 6.27779C31.6025 6.72744 31.6147 7.1771 31.6147 7.62675V24.434C31.6147 24.9688 31.5903 25.5156 31.4803 26.0382C31.236 27.2413 30.6619 28.3715 29.8312 29.283C29.0127 30.1945 27.9377 30.875 26.7772 31.2396C26.0687 31.4583 25.3357 31.5556 24.5906 31.5556C24.2607 31.5556 7.23178 31.5556 6.97525 31.5434C5.72923 31.4827 4.49542 31.0816 3.45707 30.3889C2.44315 29.7083 1.61247 28.7604 1.07497 27.6667C0.610767 26.7309 0.378665 25.6858 0.378665 24.6406V7.35939C0.354233 6.3264 0.574119 5.30557 1.02611 4.38196C1.55139 3.28821 2.36986 2.32814 3.38378 1.64758C4.42213 0.942722 5.64372 0.529527 6.88974 0.468764C7.0119 0.444458 7.14627 0.444458 7.28065 0.444458Z" fill="url(#paint0_linear_64_5153)"/>
<path d="M26.7161 25.8924C26.6061 25.7222 26.484 25.5521 26.3496 25.3941C26.0442 25.0295 25.69 24.7136 25.299 24.4462C24.8104 24.1181 24.2363 23.9115 23.6499 23.8872C23.2346 23.8629 22.8192 23.9358 22.4283 24.0816C22.0374 24.2153 21.6587 24.4097 21.2922 24.6042C20.8647 24.8229 20.4371 25.0417 19.9851 25.224C19.4476 25.4427 18.8857 25.6129 18.3116 25.7344C17.5908 25.8681 16.8579 25.9167 16.1371 25.9045C14.83 25.8802 13.5229 25.6858 12.2769 25.3212C11.1775 24.9931 10.1269 24.5434 9.13743 23.9722C8.2701 23.474 7.46385 22.9028 6.70647 22.2587C6.08346 21.724 5.50931 21.1528 4.97181 20.5452C4.60533 20.1198 4.25107 19.6702 3.92124 19.2083C3.78687 19.0261 3.66471 18.8316 3.55477 18.6372L0.329773 15.1736V7.33508C0.329773 3.53126 3.42039 0.444458 7.24396 0.444458H13.413L17.9817 5.06251C28.2919 12.0382 24.957 19.7309 24.957 19.7309C24.957 19.7309 27.8888 23.0122 26.7161 25.8924Z" fill="url(#paint1_linear_64_5153)"/>
<path d="M18.0061 5.0625C28.3163 12.0382 24.9814 19.7309 24.9814 19.7309C24.9814 19.7309 27.9132 23.0243 26.7282 25.9045C26.7282 25.9045 25.5189 23.8872 23.491 23.8872C21.5365 23.8872 20.3882 25.9045 16.4547 25.9045C7.69593 25.9045 3.55475 18.625 3.55475 18.625C11.4462 23.7899 16.8334 20.1319 16.8334 20.1319C13.2786 18.0781 5.71696 8.25868 5.71696 8.25868C12.3013 13.8368 15.1476 15.3073 15.1476 15.3073C13.4496 13.9097 8.68541 7.07986 8.68541 7.07986C12.4968 10.9201 20.0706 16.2795 20.0706 16.2795C22.2206 10.349 18.0061 5.0625 18.0061 5.0625Z" fill="white"/>
<defs>
<linearGradient id="paint0_linear_64_5153" x1="18.9335" y1="-0.665698" x2="13.0841" y2="32.6799" gradientUnits="userSpaceOnUse">
<stop stop-color="#FAAE42"/>
<stop offset="1" stop-color="#EF3E31"/>
</linearGradient>
<linearGradient id="paint1_linear_64_5153" x1="16.2852" y1="0.947097" x2="12.0041" y2="25.3522" gradientUnits="userSpaceOnUse">
<stop stop-color="#E39F3A"/>
<stop offset="1" stop-color="#D33929"/>
</linearGradient>
</defs>
</svg>
